<svg width="131" height="58" viewBox="0 0 131 58" fill="none" xmlns="http://www.w3.org/2000/svg">
<path d="M11 56H33.5C34.1667 47.3333 40.7 30 61.5 30C82.3 30 89.8333 47.3333 91 56H113C110.5 40.6667 96.7 10 61.5 10C26.3 10 13.1667 40.6667 11 56Z" fill="#ED7161"/>
<path d="M61 10V30C82.5 30 89.8333 47.3333 91 56H113C110.5 40.6667 97 10 61 10Z" fill="#FBD96D"/>
<path d="M98.5 26L83 39C86.5 43.5 89.5 47.5 91 56H113C110.5 42.5 105.5 34.5 98.5 26Z" fill="#88C057"/>
<path d="M3.42242 55.18C3.42242 55.5033 3.38742 55.785 3.31742 56.025C3.24742 56.2617 3.15242 56.4583 3.03242 56.615C2.91242 56.7683 2.77075 56.8833 2.60742 56.96C2.44742 57.0367 2.27575 57.075 2.09242 57.075C1.90908 57.075 1.73742 57.0367 1.57742 56.96C1.41742 56.8833 1.27742 56.7683 1.15742 56.615C1.03742 56.4583 0.942415 56.2617 0.872415 56.025C0.805748 55.785 0.772415 55.5033 0.772415 55.18C0.772415 54.8567 0.805748 54.5767 0.872415 54.34C0.942415 54.1 1.03742 53.9033 1.15742 53.75C1.27742 53.5933 1.41742 53.4767 1.57742 53.4C1.73742 53.3233 1.90908 53.285 2.09242 53.285C2.27575 53.285 2.44742 53.3233 2.60742 53.4C2.77075 53.4767 2.91242 53.5933 3.03242 53.75C3.15242 53.9033 3.24742 54.1 3.31742 54.34C3.38742 54.5767 3.42242 54.8567 3.42242 55.18ZM3.15242 55.18C3.15242 54.8833 3.12408 54.63 3.06742 54.42C3.01075 54.21 2.93408 54.0383 2.83742 53.905C2.74075 53.7717 2.62742 53.675 2.49742 53.615C2.37075 53.5517 2.23575 53.52 2.09242 53.52C1.95242 53.52 1.81742 53.5517 1.68742 53.615C1.56075 53.675 1.44908 53.7717 1.35242 53.905C1.25575 54.0383 1.17742 54.21 1.11742 54.42C1.06075 54.63 1.03242 54.8833 1.03242 55.18C1.03242 55.48 1.06075 55.735 1.11742 55.945C1.17742 56.155 1.25575 56.3267 1.35242 56.46C1.44908 56.5933 1.56075 56.69 1.68742 56.75C1.81742 56.81 1.95242 56.84 2.09242 56.84C2.23575 56.84 2.37075 56.81 2.49742 56.75C2.62742 56.69 2.74075 56.5933 2.83742 56.46C2.93408 56.3267 3.01075 56.155 3.06742 55.945C3.12408 55.735 3.15242 55.48 3.15242 55.18ZM4.89528 55.475C4.65195 55.475 4.45861 55.385 4.31528 55.205C4.17528 55.0217 4.10528 54.7433 4.10528 54.37C4.10528 54.0067 4.17528 53.735 4.31528 53.555C4.45861 53.375 4.65195 53.285 4.89528 53.285C5.14195 53.285 5.33528 53.375 5.47528 53.555C5.61528 53.735 5.68528 54.0067 5.68528 54.37C5.68528 54.7433 5.61528 55.0217 5.47528 55.205C5.33528 55.385 5.14195 55.475 4.89528 55.475ZM4.89528 55.275C5.06195 55.275 5.19528 55.2017 5.29528 55.055C5.39528 54.905 5.44528 54.6767 5.44528 54.37C5.44528 54.0667 5.39528 53.8433 5.29528 53.7C5.19528 53.5567 5.06195 53.485 4.89528 53.485C4.72861 53.485 4.59528 53.5567 4.49528 53.7C4.39861 53.8433 4.35028 54.0667 4.35028 54.37C4.35028 54.6767 4.39861 54.905 4.49528 55.055C4.59528 55.2017 4.72861 55.275 4.89528 55.275ZM7.02028 53.285H7.26528L5.23528 57.06H4.99028L7.02028 53.285ZM7.37028 57.06C7.12361 57.06 6.92861 56.97 6.78528 56.79C6.64528 56.61 6.57528 56.3333 6.57528 55.96C6.57528 55.5933 6.64528 55.32 6.78528 55.14C6.92861 54.96 7.12361 54.87 7.37028 54.87C7.61028 54.87 7.80195 54.96 7.94528 55.14C8.08861 55.32 8.16028 55.5933 8.16028 55.96C8.16028 56.3333 8.08861 56.61 7.94528 56.79C7.80195 56.97 7.61028 57.06 7.37028 57.06ZM7.37028 56.86C7.53361 56.86 7.66528 56.7867 7.76528 56.64C7.86528 56.4933 7.91528 56.2667 7.91528 55.96C7.91528 55.6533 7.86528 55.4283 7.76528 55.285C7.66528 55.1417 7.53361 55.07 7.37028 55.07C7.20028 55.07 7.06528 55.1417 6.96528 55.285C6.86861 55.4283 6.82028 55.6533 6.82028 55.96C6.82028 56.2667 6.86861 56.4933 6.96528 56.64C7.06528 56.7867 7.20028 56.86 7.37028 56.86Z" fill="#D2D1D1"/>
<path d="M57.8085 2.795C57.9251 2.765 58.0318 2.745 58.1285 2.735C58.2285 2.72167 58.3251 2.715 58.4185 2.715C58.6118 2.715 58.7818 2.74333 58.9285 2.8C59.0751 2.85333 59.1968 2.93 59.2935 3.03C59.3935 3.13 59.4685 3.24833 59.5185 3.385C59.5685 3.52167 59.5935 3.67 59.5935 3.83C59.5935 4.02333 59.5601 4.19833 59.4935 4.355C59.4268 4.50833 59.3351 4.63833 59.2185 4.745C59.1018 4.85167 58.9651 4.935 58.8085 4.995C58.6551 5.05167 58.4901 5.08 58.3135 5.08C58.1135 5.08 57.9301 5.04667 57.7635 4.98C57.6001 4.91 57.4618 4.83 57.3485 4.74L57.5035 4.54C57.5668 4.58333 57.6168 4.61833 57.6535 4.645C57.6935 4.66833 57.7318 4.69 57.7685 4.71C57.8051 4.73 57.8435 4.74833 57.8835 4.765C57.9268 4.77833 57.9701 4.79167 58.0135 4.805C58.1035 4.82833 58.2085 4.84 58.3285 4.84C58.4685 4.84 58.5985 4.81833 58.7185 4.775C58.8385 4.72833 58.9435 4.66333 59.0335 4.58C59.1235 4.49333 59.1935 4.38833 59.2435 4.265C59.2968 4.13833 59.3235 3.995 59.3235 3.835C59.3235 3.575 59.2451 3.36167 59.0885 3.195C58.9318 3.02833 58.6935 2.945 58.3735 2.945C58.2768 2.945 58.1735 2.95333 58.0635 2.97C57.9535 2.98333 57.8351 3.00833 57.7085 3.045L57.5385 2.995L57.8285 1.355H59.4985V1.6H58.0285L57.8085 2.795ZM63.0563 3.18C63.0563 3.50333 63.0213 3.785 62.9513 4.025C62.8813 4.26167 62.7863 4.45833 62.6663 4.615C62.5463 4.76833 62.4047 4.88333 62.2413 4.96C62.0813 5.03667 61.9097 5.075 61.7263 5.075C61.543 5.075 61.3713 5.03667 61.2113 4.96C61.0513 4.88333 60.9113 4.76833 60.7913 4.615C60.6713 4.45833 60.5763 4.26167 60.5063 4.025C60.4397 3.785 60.4063 3.50333 60.4063 3.18C60.4063 2.85667 60.4397 2.57667 60.5063 2.34C60.5763 2.1 60.6713 1.90333 60.7913 1.75C60.9113 1.59333 61.0513 1.47667 61.2113 1.4C61.3713 1.32333 61.543 1.285 61.7263 1.285C61.9097 1.285 62.0813 1.32333 62.2413 1.4C62.4047 1.47667 62.5463 1.59333 62.6663 1.75C62.7863 1.90333 62.8813 2.1 62.9513 2.34C63.0213 2.57667 63.0563 2.85667 63.0563 3.18ZM62.7863 3.18C62.7863 2.88333 62.758 2.63 62.7013 2.42C62.6447 2.21 62.568 2.03833 62.4713 1.905C62.3747 1.77167 62.2613 1.675 62.1313 1.615C62.0047 1.55167 61.8697 1.52 61.7263 1.52C61.5863 1.52 61.4513 1.55167 61.3213 1.615C61.1947 1.675 61.083 1.77167 60.9863 1.905C60.8897 2.03833 60.8113 2.21 60.7513 2.42C60.6947 2.63 60.6663 2.88333 60.6663 3.18C60.6663 3.48 60.6947 3.735 60.7513 3.945C60.8113 4.155 60.8897 4.32667 60.9863 4.46C61.083 4.59333 61.1947 4.69 61.3213 4.75C61.4513 4.81 61.5863 4.84 61.7263 4.84C61.8697 4.84 62.0047 4.81 62.1313 4.75C62.2613 4.69 62.3747 4.59333 62.4713 4.46C62.568 4.32667 62.6447 4.155 62.7013 3.945C62.758 3.735 62.7863 3.48 62.7863 3.18ZM64.5292 3.475C64.2859 3.475 64.0925 3.385 63.9492 3.205C63.8092 3.02167 63.7392 2.74333 63.7392 2.37C63.7392 2.00667 63.8092 1.735 63.9492 1.555C64.0925 1.375 64.2859 1.285 64.5292 1.285C64.7759 1.285 64.9692 1.375 65.1092 1.555C65.2492 1.735 65.3192 2.00667 65.3192 2.37C65.3192 2.74333 65.2492 3.02167 65.1092 3.205C64.9692 3.385 64.7759 3.475 64.5292 3.475ZM64.5292 3.275C64.6959 3.275 64.8292 3.20167 64.9292 3.055C65.0292 2.905 65.0792 2.67667 65.0792 2.37C65.0792 2.06667 65.0292 1.84333 64.9292 1.7C64.8292 1.55667 64.6959 1.485 64.5292 1.485C64.3625 1.485 64.2292 1.55667 64.1292 1.7C64.0325 1.84333 63.9842 2.06667 63.9842 2.37C63.9842 2.67667 64.0325 2.905 64.1292 3.055C64.2292 3.20167 64.3625 3.275 64.5292 3.275ZM66.6542 1.285H66.8992L64.8692 5.06H64.6242L66.6542 1.285ZM67.0042 5.06C66.7575 5.06 66.5625 4.97 66.4192 4.79C66.2792 4.61 66.2092 4.33333 66.2092 3.96C66.2092 3.59333 66.2792 3.32 66.4192 3.14C66.5625 2.96 66.7575 2.87 67.0042 2.87C67.2442 2.87 67.4359 2.96 67.5792 3.14C67.7225 3.32 67.7942 3.59333 67.7942 3.96C67.7942 4.33333 67.7225 4.61 67.5792 4.79C67.4359 4.97 67.2442 5.06 67.0042 5.06ZM67.0042 4.86C67.1675 4.86 67.2992 4.78667 67.3992 4.64C67.4992 4.49333 67.5492 4.26667 67.5492 3.96C67.5492 3.65333 67.4992 3.42833 67.3992 3.285C67.2992 3.14167 67.1675 3.07 67.0042 3.07C66.8342 3.07 66.6992 3.14167 66.5992 3.285C66.5025 3.42833 66.4542 3.65333 66.4542 3.96C66.4542 4.26667 66.5025 4.49333 66.5992 4.64C66.6992 4.78667 66.8342 4.86 67.0042 4.86Z" fill="#D2D1D1"/>
<path d="M118.425 56.76V57H116.55V56.76H117.38V53.865C117.38 53.8083 117.383 53.7467 117.39 53.68L116.65 54.345L116.495 54.165L117.435 53.335H117.65V56.76H118.425ZM121.922 55.18C121.922 55.5033 121.887 55.785 121.817 56.025C121.747 56.2617 121.652 56.4583 121.532 56.615C121.412 56.7683 121.271 56.8833 121.107 56.96C120.947 57.0367 120.776 57.075 120.592 57.075C120.409 57.075 120.237 57.0367 120.077 56.96C119.917 56.8833 119.777 56.7683 119.657 56.615C119.537 56.4583 119.442 56.2617 119.372 56.025C119.306 55.785 119.272 55.5033 119.272 55.18C119.272 54.8567 119.306 54.5767 119.372 54.34C119.442 54.1 119.537 53.9033 119.657 53.75C119.777 53.5933 119.917 53.4767 120.077 53.4C120.237 53.3233 120.409 53.285 120.592 53.285C120.776 53.285 120.947 53.3233 121.107 53.4C121.271 53.4767 121.412 53.5933 121.532 53.75C121.652 53.9033 121.747 54.1 121.817 54.34C121.887 54.5767 121.922 54.8567 121.922 55.18ZM121.652 55.18C121.652 54.8833 121.624 54.63 121.567 54.42C121.511 54.21 121.434 54.0383 121.337 53.905C121.241 53.7717 121.127 53.675 120.997 53.615C120.871 53.5517 120.736 53.52 120.592 53.52C120.452 53.52 120.317 53.5517 120.187 53.615C120.061 53.675 119.949 53.7717 119.852 53.905C119.756 54.0383 119.677 54.21 119.617 54.42C119.561 54.63 119.532 54.8833 119.532 55.18C119.532 55.48 119.561 55.735 119.617 55.945C119.677 56.155 119.756 56.3267 119.852 56.46C119.949 56.5933 120.061 56.69 120.187 56.75C120.317 56.81 120.452 56.84 120.592 56.84C120.736 56.84 120.871 56.81 120.997 56.75C121.127 56.69 121.241 56.5933 121.337 56.46C121.434 56.3267 121.511 56.155 121.567 55.945C121.624 55.735 121.652 55.48 121.652 55.18ZM125.19 55.18C125.19 55.5033 125.155 55.785 125.085 56.025C125.015 56.2617 124.92 56.4583 124.8 56.615C124.68 56.7683 124.539 56.8833 124.375 56.96C124.215 57.0367 124.044 57.075 123.86 57.075C123.677 57.075 123.505 57.0367 123.345 56.96C123.185 56.8833 123.045 56.7683 122.925 56.615C122.805 56.4583 122.71 56.2617 122.64 56.025C122.574 55.785 122.54 55.5033 122.54 55.18C122.54 54.8567 122.574 54.5767 122.64 54.34C122.71 54.1 122.805 53.9033 122.925 53.75C123.045 53.5933 123.185 53.4767 123.345 53.4C123.505 53.3233 123.677 53.285 123.86 53.285C124.044 53.285 124.215 53.3233 124.375 53.4C124.539 53.4767 124.68 53.5933 124.8 53.75C124.92 53.9033 125.015 54.1 125.085 54.34C125.155 54.5767 125.19 54.8567 125.19 55.18ZM124.92 55.18C124.92 54.8833 124.892 54.63 124.835 54.42C124.779 54.21 124.702 54.0383 124.605 53.905C124.509 53.7717 124.395 53.675 124.265 53.615C124.139 53.5517 124.004 53.52 123.86 53.52C123.72 53.52 123.585 53.5517 123.455 53.615C123.329 53.675 123.217 53.7717 123.12 53.905C123.024 54.0383 122.945 54.21 122.885 54.42C122.829 54.63 122.8 54.8833 122.8 55.18C122.8 55.48 122.829 55.735 122.885 55.945C122.945 56.155 123.024 56.3267 123.12 56.46C123.217 56.5933 123.329 56.69 123.455 56.75C123.585 56.81 123.72 56.84 123.86 56.84C124.004 56.84 124.139 56.81 124.265 56.75C124.395 56.69 124.509 56.5933 124.605 56.46C124.702 56.3267 124.779 56.155 124.835 55.945C124.892 55.735 124.92 55.48 124.92 55.18ZM126.663 55.475C126.42 55.475 126.226 55.385 126.083 55.205C125.943 55.0217 125.873 54.7433 125.873 54.37C125.873 54.0067 125.943 53.735 126.083 53.555C126.226 53.375 126.42 53.285 126.663 53.285C126.91 53.285 127.103 53.375 127.243 53.555C127.383 53.735 127.453 54.0067 127.453 54.37C127.453 54.7433 127.383 55.0217 127.243 55.205C127.103 55.385 126.91 55.475 126.663 55.475ZM126.663 55.275C126.83 55.275 126.963 55.2017 127.063 55.055C127.163 54.905 127.213 54.6767 127.213 54.37C127.213 54.0667 127.163 53.8433 127.063 53.7C126.963 53.5567 126.83 53.485 126.663 53.485C126.496 53.485 126.363 53.5567 126.263 53.7C126.166 53.8433 126.118 54.0667 126.118 54.37C126.118 54.6767 126.166 54.905 126.263 55.055C126.363 55.2017 126.496 55.275 126.663 55.275ZM128.788 53.285H129.033L127.003 57.06H126.758L128.788 53.285ZM129.138 57.06C128.891 57.06 128.696 56.97 128.553 56.79C128.413 56.61 128.343 56.3333 128.343 55.96C128.343 55.5933 128.413 55.32 128.553 55.14C128.696 54.96 128.891 54.87 129.138 54.87C129.378 54.87 129.57 54.96 129.713 55.14C129.856 55.32 129.928 55.5933 129.928 55.96C129.928 56.3333 129.856 56.61 129.713 56.79C129.57 56.97 129.378 57.06 129.138 57.06ZM129.138 56.86C129.301 56.86 129.433 56.7867 129.533 56.64C129.633 56.4933 129.683 56.2667 129.683 55.96C129.683 55.6533 129.633 55.4283 129.533 55.285C129.433 55.1417 129.301 55.07 129.138 55.07C128.968 55.07 128.833 55.1417 128.733 55.285C128.636 55.4283 128.588 55.6533 128.588 55.96C128.588 56.2667 128.636 56.4933 128.733 56.64C128.833 56.7867 128.968 56.86 129.138 56.86Z" fill="#D2D1D1"/>
<path d="M104.153 22.34V22.52L102.403 26H102.103L103.793 22.7C103.817 22.6567 103.843 22.6167 103.873 22.58H101.763V22.34H104.153ZM105.576 23.795C105.693 23.765 105.8 23.745 105.896 23.735C105.996 23.7217 106.093 23.715 106.186 23.715C106.38 23.715 106.55 23.7433 106.696 23.8C106.843 23.8533 106.965 23.93 107.061 24.03C107.161 24.13 107.236 24.2483 107.286 24.385C107.336 24.5217 107.361 24.67 107.361 24.83C107.361 25.0233 107.328 25.1983 107.261 25.355C107.195 25.5083 107.103 25.6383 106.986 25.745C106.87 25.8517 106.733 25.935 106.576 25.995C106.423 26.0517 106.258 26.08 106.081 26.08C105.881 26.08 105.698 26.0467 105.531 25.98C105.368 25.91 105.23 25.83 105.116 25.74L105.271 25.54C105.335 25.5833 105.385 25.6183 105.421 25.645C105.461 25.6683 105.5 25.69 105.536 25.71C105.573 25.73 105.611 25.7483 105.651 25.765C105.695 25.7783 105.738 25.7917 105.781 25.805C105.871 25.8283 105.976 25.84 106.096 25.84C106.236 25.84 106.366 25.8183 106.486 25.775C106.606 25.7283 106.711 25.6633 106.801 25.58C106.891 25.4933 106.961 25.3883 107.011 25.265C107.065 25.1383 107.091 24.995 107.091 24.835C107.091 24.575 107.013 24.3617 106.856 24.195C106.7 24.0283 106.461 23.945 106.141 23.945C106.045 23.945 105.941 23.9533 105.831 23.97C105.721 23.9833 105.603 24.0083 105.476 24.045L105.306 23.995L105.596 22.355H107.266V22.6H105.796L105.576 23.795ZM109.029 24.475C108.786 24.475 108.593 24.385 108.449 24.205C108.309 24.0217 108.239 23.7433 108.239 23.37C108.239 23.0067 108.309 22.735 108.449 22.555C108.593 22.375 108.786 22.285 109.029 22.285C109.276 22.285 109.469 22.375 109.609 22.555C109.749 22.735 109.819 23.0067 109.819 23.37C109.819 23.7433 109.749 24.0217 109.609 24.205C109.469 24.385 109.276 24.475 109.029 24.475ZM109.029 24.275C109.196 24.275 109.329 24.2017 109.429 24.055C109.529 23.905 109.579 23.6767 109.579 23.37C109.579 23.0667 109.529 22.8433 109.429 22.7C109.329 22.5567 109.196 22.485 109.029 22.485C108.863 22.485 108.729 22.5567 108.629 22.7C108.533 22.8433 108.484 23.0667 108.484 23.37C108.484 23.6767 108.533 23.905 108.629 24.055C108.729 24.2017 108.863 24.275 109.029 24.275ZM111.154 22.285H111.399L109.369 26.06H109.124L111.154 22.285ZM111.504 26.06C111.258 26.06 111.063 25.97 110.919 25.79C110.779 25.61 110.709 25.3333 110.709 24.96C110.709 24.5933 110.779 24.32 110.919 24.14C111.063 23.96 111.258 23.87 111.504 23.87C111.744 23.87 111.936 23.96 112.079 24.14C112.223 24.32 112.294 24.5933 112.294 24.96C112.294 25.3333 112.223 25.61 112.079 25.79C111.936 25.97 111.744 26.06 111.504 26.06ZM111.504 25.86C111.668 25.86 111.799 25.7867 111.899 25.64C111.999 25.4933 112.049 25.2667 112.049 24.96C112.049 24.6533 111.999 24.4283 111.899 24.285C111.799 24.1417 111.668 24.07 111.504 24.07C111.334 24.07 111.199 24.1417 111.099 24.285C111.003 24.4283 110.954 24.6533 110.954 24.96C110.954 25.2667 111.003 25.4933 111.099 25.64C111.199 25.7867 111.334 25.86 111.504 25.86Z" fill="#D2D1D1"/>
<path d="M12.0735 25.745V26H9.71848V25.845L11.0135 24.53C11.1168 24.4267 11.2118 24.3267 11.2985 24.23C11.3885 24.13 11.4651 24.03 11.5285 23.93C11.5918 23.83 11.6401 23.7283 11.6735 23.625C11.7101 23.5183 11.7285 23.4067 11.7285 23.29C11.7285 23.1567 11.7068 23.0433 11.6635 22.95C11.6201 22.8533 11.5618 22.775 11.4885 22.715C11.4185 22.6517 11.3351 22.605 11.2385 22.575C11.1418 22.545 11.0401 22.53 10.9335 22.53C10.8168 22.53 10.7118 22.5483 10.6185 22.585C10.5251 22.6183 10.4418 22.6667 10.3685 22.73C10.2951 22.79 10.2335 22.8617 10.1835 22.945C10.1368 23.0283 10.1018 23.12 10.0785 23.22L10.0635 23.335L9.80348 23.295C9.85015 22.9717 9.97515 22.7233 10.1785 22.55C10.3851 22.3767 10.6401 22.29 10.9435 22.29C11.0835 22.29 11.2185 22.3117 11.3485 22.355C11.4785 22.395 11.5918 22.4567 11.6885 22.54C11.7851 22.6233 11.8618 22.7283 11.9185 22.855C11.9785 22.9783 12.0085 23.1217 12.0085 23.285C12.0085 23.4217 11.9851 23.5517 11.9385 23.675C11.8951 23.795 11.8368 23.9117 11.7635 24.025C11.6901 24.135 11.6051 24.2433 11.5085 24.35C11.4118 24.4567 11.3118 24.565 11.2085 24.675L10.1285 25.78C10.1751 25.7667 10.2251 25.7583 10.2785 25.755C10.3351 25.7483 10.3918 25.745 10.4485 25.745H12.0735ZM13.5763 23.795C13.693 23.765 13.7997 23.745 13.8963 23.735C13.9963 23.7217 14.093 23.715 14.1863 23.715C14.3797 23.715 14.5497 23.7433 14.6963 23.8C14.843 23.8533 14.9647 23.93 15.0613 24.03C15.1613 24.13 15.2363 24.2483 15.2863 24.385C15.3363 24.5217 15.3613 24.67 15.3613 24.83C15.3613 25.0233 15.328 25.1983 15.2613 25.355C15.1947 25.5083 15.103 25.6383 14.9863 25.745C14.8697 25.8517 14.733 25.935 14.5763 25.995C14.423 26.0517 14.258 26.08 14.0813 26.08C13.8813 26.08 13.698 26.0467 13.5313 25.98C13.368 25.91 13.2297 25.83 13.1163 25.74L13.2713 25.54C13.3347 25.5833 13.3847 25.6183 13.4213 25.645C13.4613 25.6683 13.4997 25.69 13.5363 25.71C13.573 25.73 13.6113 25.7483 13.6513 25.765C13.6947 25.7783 13.738 25.7917 13.7813 25.805C13.8713 25.8283 13.9763 25.84 14.0963 25.84C14.2363 25.84 14.3663 25.8183 14.4863 25.775C14.6063 25.7283 14.7113 25.6633 14.8013 25.58C14.8913 25.4933 14.9613 25.3883 15.0113 25.265C15.0647 25.1383 15.0913 24.995 15.0913 24.835C15.0913 24.575 15.013 24.3617 14.8563 24.195C14.6997 24.0283 14.4613 23.945 14.1413 23.945C14.0447 23.945 13.9413 23.9533 13.8313 23.97C13.7213 23.9833 13.603 24.0083 13.4763 24.045L13.3063 23.995L13.5963 22.355H15.2663V22.6H13.7963L13.5763 23.795ZM17.0292 24.475C16.7859 24.475 16.5925 24.385 16.4492 24.205C16.3092 24.0217 16.2392 23.7433 16.2392 23.37C16.2392 23.0067 16.3092 22.735 16.4492 22.555C16.5925 22.375 16.7859 22.285 17.0292 22.285C17.2759 22.285 17.4692 22.375 17.6092 22.555C17.7492 22.735 17.8192 23.0067 17.8192 23.37C17.8192 23.7433 17.7492 24.0217 17.6092 24.205C17.4692 24.385 17.2759 24.475 17.0292 24.475ZM17.0292 24.275C17.1959 24.275 17.3292 24.2017 17.4292 24.055C17.5292 23.905 17.5792 23.6767 17.5792 23.37C17.5792 23.0667 17.5292 22.8433 17.4292 22.7C17.3292 22.5567 17.1959 22.485 17.0292 22.485C16.8625 22.485 16.7292 22.5567 16.6292 22.7C16.5325 22.8433 16.4842 23.0667 16.4842 23.37C16.4842 23.6767 16.5325 23.905 16.6292 24.055C16.7292 24.2017 16.8625 24.275 17.0292 24.275ZM19.1542 22.285H19.3992L17.3692 26.06H17.1242L19.1542 22.285ZM19.5042 26.06C19.2575 26.06 19.0625 25.97 18.9192 25.79C18.7792 25.61 18.7092 25.3333 18.7092 24.96C18.7092 24.5933 18.7792 24.32 18.9192 24.14C19.0625 23.96 19.2575 23.87 19.5042 23.87C19.7442 23.87 19.9359 23.96 20.0792 24.14C20.2225 24.32 20.2942 24.5933 20.2942 24.96C20.2942 25.3333 20.2225 25.61 20.0792 25.79C19.9359 25.97 19.7442 26.06 19.5042 26.06ZM19.5042 25.86C19.6675 25.86 19.7992 25.7867 19.8992 25.64C19.9992 25.4933 20.0492 25.2667 20.0492 24.96C20.0492 24.6533 19.9992 24.4283 19.8992 24.285C19.7992 24.1417 19.6675 24.07 19.5042 24.07C19.3342 24.07 19.1992 24.1417 19.0992 24.285C19.0025 24.4283 18.9542 24.6533 18.9542 24.96C18.9542 25.2667 19.0025 25.4933 19.0992 25.64C19.1992 25.7867 19.3342 25.86 19.5042 25.86Z" fill="#D2D1D1"/>
</svg>
