<svg width="24" height="22" viewBox="0 0 24 22" fill="none" xmlns="http://www.w3.org/2000/svg">
<path d="M1 19.4929C8.46476 13.0012 5 1.00001 22 1C26 18.5 13.6901 23.0994 1 19.4929Z" fill="#4A6F53" stroke="#4A6F53" stroke-linecap="round" stroke-linejoin="round"/>
<mask id="mask0" mask-type="alpha" maskUnits="userSpaceOnUse" x="0" y="0" width="24" height="22">
<path d="M1 19.4929C8.46476 13.0012 5 1.00001 22 1C26 18.5 13.6901 23.0994 1 19.4929Z" fill="#4A6F53" stroke="#4A6F53" stroke-linecap="round" stroke-linejoin="round"/>
</mask>
<g mask="url(#mask0)">
</g>
<mask id="mask1" mask-type="alpha" maskUnits="userSpaceOnUse" x="0" y="0" width="24" height="22">
<path d="M1 19.4929C8.46476 13.0012 5 1.00001 22 1C26 18.5 13.6901 23.0994 1 19.4929Z" fill="#4A6F53" stroke="#4A6F53" stroke-linecap="round" stroke-linejoin="round"/>
</mask>
<g mask="url(#mask1)">
<path d="M0.999995 20C10 24 23.7387 18.7645 25 14C25.8726 11.069 24.6874 -4.39367 23 0.499993C18 15 9.5 18 0.999995 20Z" fill="#74A47F" stroke="#74A47F" stroke-linecap="round" stroke-linejoin="round"/>
</g>
</svg>
